# xmcd
#
# Track frame offsets: 
#        150
#        16595
#        31866
#        47504
#        63941
#        79180
#        93873
#        109421
#        124728
#        137554
#        149345
#        164522
#
# Disc length: 2397 seconds
#
# Revision: 0
# Processed by: cddbd v1.5.2PL0 Copyright (c) Steve Scherf et al.
# Submitted via: ExactAudioCopy v0.99pb4
#
DISCID=95095b0c
DTITLE=Gabriella Cilmi - Lessons To Be Learned
DYEAR=2008
DGENRE=Blues
TTITLE0=Save The Lies
TTITLE1=Sweet About Me
TTITLE2=Sanctuary
TTITLE3=Einstein
TTITLE4=Got No Place To Go
TTITLE5=Don't Want To Go To Bed Now
TTITLE6=Awkward Game
TTITLE7=Safer
TTITLE8=Cigarettes And Lies
TTITLE9=Terrifying
TTITLE10=Sit In The Blues
TTITLE11=Echo Beach
EXTD=
EXTT0=
EXTT1=
EXTT2=
EXTT3=
EXTT4=
EXTT5=
EXTT6=
EXTT7=
EXTT8=
EXTT9=
EXTT10=
EXTT11=
PLAYORDER=
